<svg width="31" height="30" viewBox="0 0 31 30" fill="none" xmlns="http://www.w3.org/2000/svg">
<path fill-rule="evenodd" clip-rule="evenodd" d="M27.9546 15.5472C27.5025 16.0006 26.8887 16.2557 26.2484 16.2566L22.1578 16.262C21.8065 16.2625 21.4813 16.4472 21.3009 16.7486L15.2417 26.8777L13.8007 26.8797C13.2484 26.8804 12.8001 26.4333 12.7993 25.881C12.7992 25.7735 12.8164 25.6667 12.8502 25.5647L15.9347 16.2702L10.2779 16.2777L7.18348 19.3803C6.916 19.6485 6.51996 19.7425 6.16046 19.6232L4.62479 19.1136L6.03339 14.8691L4.61357 10.6283L6.1479 10.1146C6.50707 9.99437 6.90336 10.0874 7.17155 10.3549L10.2742 13.4493L15.931 13.4418L12.8219 4.15552C12.6466 3.63181 12.929 3.06512 13.4527 2.88978C13.5546 2.85565 13.6614 2.83818 13.7689 2.83804L15.2099 2.83614L21.2959 12.9492C21.477 13.2502 21.8028 13.434 22.154 13.4336L26.2447 13.4282C26.885 13.4273 27.4994 13.6809 27.9527 14.133C28.3438 14.523 28.3446 15.1562 27.9546 15.5472Z" fill="#4387EE"/>
</svg>
