<svg width="45" height="45" viewBox="0 0 45 45" fill="none" xmlns="http://www.w3.org/2000/svg">
<rect width="45" height="45" rx="22.5" fill="white"/>
<path fill-rule="evenodd" clip-rule="evenodd" d="M18.4724 16.7619L18.4646 16.6364C18.4646 16.1266 18.846 15.7059 19.3391 15.6442L19.4646 15.6364H29.3641L29.4244 15.6382L29.5114 15.6472L29.6407 15.6752L29.7582 15.7171L29.8577 15.7666L29.9828 15.8507L30.0712 15.9293L30.1224 15.9845L30.1988 16.0856L30.2567 16.1852L30.3042 16.2948L30.3361 16.4007L30.3581 16.5269L30.3641 16.6364L30.3641 26.5359C30.3641 27.0882 29.9163 27.5359 29.3641 27.5359C28.8543 27.5359 28.4336 27.1544 28.3718 26.6614L28.3641 26.5359L28.3628 19.0519L17.3432 30.0715C16.9527 30.462 16.3196 30.462 15.929 30.0715C15.5385 29.6809 15.5385 29.0478 15.929 28.6572L26.95 17.6363L19.4646 17.6364C18.9548 17.6364 18.5341 17.2549 18.4724 16.7619L18.4646 16.6364L18.4724 16.7619Z" fill="#141416"/>
</svg>
