<svg width="45" height="45" viewBox="0 0 45 45" fill="none" xmlns="http://www.w3.org/2000/svg">
<g id="&#209;&#129;&#209;&#130;&#209;&#128;&#208;&#181;&#208;&#187;&#208;&#186;&#208;&#176;-&#208;&#191;&#208;&#190;&#208;&#180;&#209;&#128;&#208;&#190;&#208;&#177;&#208;&#189;&#208;&#181;&#208;&#181;">
<rect width="45" height="45" rx="22.5" fill="#F5F7FA"/>
<path id="Icon" fill-rule="evenodd" clip-rule="evenodd" d="M18.4721 16.7619L18.4643 16.6364C18.4643 16.1266 18.8458 15.7059 19.3389 15.6442L19.4643 15.6364H29.3638L29.4242 15.6382L29.5111 15.6472L29.6405 15.6752L29.758 15.7171L29.8575 15.7666L29.9825 15.8507L30.0709 15.9293L30.1221 15.9845L30.1985 16.0856L30.2565 16.1852L30.3039 16.2948L30.3359 16.4007L30.3578 16.5269L30.3638 16.6364L30.3638 26.5359C30.3638 27.0882 29.9161 27.5359 29.3638 27.5359C28.854 27.5359 28.4333 27.1544 28.3716 26.6614L28.3638 26.5359L28.3625 19.0519L17.343 30.0715C16.9525 30.462 16.3193 30.462 15.9288 30.0715C15.5383 29.6809 15.5383 29.0478 15.9288 28.6572L26.9497 17.6363L19.4643 17.6364C18.9545 17.6364 18.5338 17.2549 18.4721 16.7619L18.4643 16.6364L18.4721 16.7619Z" fill="#141416"/>
</g>
</svg>
