<svg width="24" height="24" viewBox="0 0 24 24" fill="none" xmlns="http://www.w3.org/2000/svg">
<rect width="24" height="24" rx="12" fill="#F5F7FA"/>
<path fill-rule="evenodd" clip-rule="evenodd" d="M14.7874 5.44876L5.81737 14.4761C4.72754 15.5108 4.72754 17.1892 5.81737 18.2239C6.82335 19.2587 8.5 19.2587 9.50599 18.2239L18.5599 9.19664C19.1467 8.59745 19.1467 7.62649 18.5599 7.02814L16.9671 5.44876C16.3802 4.85041 15.3743 4.85041 14.7874 5.44876ZM13.195 9.0168L15.7938 6.43373C15.8776 6.37919 15.9615 6.37919 15.9615 6.43373L17.5543 8.01227C17.6381 8.06766 17.6381 8.15662 17.5543 8.21116L14.9555 10.7942L13.195 9.0168ZM12.1888 10.0022L6.73973 15.4612C6.23674 15.9521 6.23674 16.7477 6.73973 17.2386C7.24273 17.7296 8.08105 17.7296 8.50021 17.2386L14.0331 11.7796L12.1888 10.0022Z" fill="#0F6EFE"/>
</svg>
