<svg width="1863" height="776" viewBox="0 0 1863 776" fill="none" xmlns="http://www.w3.org/2000/svg">
<path d="M1480.37 666.368C1637.77 666.368 1765.37 538.769 1765.37 381.368C1765.37 223.967 1637.77 96.3677 1480.37 96.3677C1374.88 96.3677 1282.78 153.681 1233.5 238.868C1311.11 233.948 1518.71 221.894 1535.34 307.256C1535.74 309.289 1533.89 311.019 1531.87 310.576C1496.16 302.754 1435.7 293.576 1403 295.5C1407.5 302.667 1419.5 314 1443 320C1475.59 328.32 1543 322.5 1575.5 339.5C1606.29 355.607 1634.84 374.406 1646.68 436.296C1647.26 439.285 1643.19 441.316 1640.84 439.379C1610.67 414.457 1544.92 407.062 1454 414C1354.4 421.6 1312 451 1288 473C1264 495 1236.76 529.368 1236.76 529.368C1286.78 611.512 1377.17 666.368 1480.37 666.368Z" fill="#FF6C00"/>
<path fill-rule="evenodd" clip-rule="evenodd" d="M1648.81 641.655C1600.24 672.538 1542.16 690.5 1479.75 690.5C1386.53 690.5 1303.13 652.456 1246.66 590.951C1195.87 530.774 1175.06 455.756 1171.54 402.387C1171.51 400.853 1171.5 399.315 1171.5 397.774H1171.27C1171.17 395.644 1171.09 393.552 1171.05 391.5H1097.07C1099.47 601.506 1269.97 768 1480 768C1689.03 768 1858.94 600.116 1862.93 391.5H1789.5C1789.5 391.333 1789.5 391.167 1789.5 391H1788.5C1788.5 391.174 1788.5 391.347 1788.5 391.521C1787 460.163 1745.96 575.978 1648.81 641.655ZM1600.51 667.805C1585.57 673.949 1570.02 678.987 1553.99 682.814C1570.47 678.99 1585.96 673.921 1600.51 667.805ZM1432.11 688.136C1366.99 678.837 1308.64 650.712 1263.66 609.372C1303.34 648.662 1358.08 678.973 1432.11 688.136Z" fill="#0348D9"/>
<path d="M1120 391H7L152 518L1126.5 477.5L1120 391Z" fill="#0348D9"/>
<path d="M1092 535.5C1090 532.3 1083.17 509.5 1080 498.5L213 556.5L348.5 637.5C597.167 604.833 1094 538.7 1092 535.5Z" fill="#0348D9"/>
<path d="M1131.5 614L1099.5 557L402 661L612.5 729.5L1131.5 614Z" fill="#0348D9"/>
<path d="M1194.5 689L1143 633L652 741.5C708 765.1 886.667 774.333 969 776L1194.5 689Z" fill="#0348D9"/>
<path d="M130.753 193.344C129.825 184.66 125.914 177.899 119.02 173.06C112.192 168.221 103.31 165.801 92.3722 165.801C84.6828 165.801 78.0871 166.961 72.5852 169.281C67.0833 171.601 62.8741 174.75 59.9574 178.727C57.0407 182.705 55.5492 187.245 55.483 192.349C55.483 196.592 56.4441 200.271 58.3665 203.386C60.3551 206.502 63.0398 209.153 66.4205 211.341C69.8011 213.462 73.5464 215.252 77.6562 216.71C81.7661 218.169 85.9091 219.395 90.0852 220.389L109.176 225.162C116.866 226.952 124.257 229.371 131.349 232.42C138.509 235.47 144.905 239.314 150.54 243.955C156.241 248.595 160.748 254.196 164.062 260.759C167.377 267.321 169.034 275.01 169.034 283.827C169.034 295.759 165.985 306.265 159.886 315.347C153.788 324.362 144.972 331.421 133.438 336.526C121.97 341.563 108.082 344.082 91.7756 344.082C75.9328 344.082 62.178 341.63 50.5114 336.724C38.911 331.819 29.8295 324.66 23.267 315.247C16.7708 305.834 13.2576 294.366 12.7273 280.844H49.0199C49.5502 287.937 51.7377 293.836 55.5824 298.543C59.4271 303.249 64.4318 306.762 70.5966 309.082C76.8277 311.402 83.7879 312.562 91.4773 312.562C99.4981 312.562 106.525 311.369 112.557 308.983C118.655 306.53 123.428 303.15 126.875 298.841C130.322 294.466 132.079 289.362 132.145 283.528C132.079 278.225 130.521 273.85 127.472 270.403C124.422 266.89 120.147 263.973 114.645 261.653C109.209 259.267 102.846 257.146 95.554 255.29L72.3864 249.324C55.6155 245.015 42.358 238.486 32.6136 229.736C22.9356 220.92 18.0966 209.22 18.0966 194.636C18.0966 182.638 21.3447 172.132 27.8409 163.116C34.4034 154.101 43.3191 147.108 54.5881 142.136C65.857 137.098 78.6174 134.58 92.8693 134.58C107.32 134.58 119.981 137.098 130.852 142.136C141.79 147.108 150.374 154.035 156.605 162.918C162.836 171.734 166.051 181.876 166.25 193.344H130.753ZM199.121 341V137.364H236.01V230.929H238.496L317.942 137.364H362.985L284.235 228.741L363.681 341H319.334L258.581 253.699L236.01 280.347V341H199.121ZM371.893 137.364H413.555L463.37 227.449H465.359L515.174 137.364H556.836L482.759 265.034V341H445.97V265.034L371.893 137.364ZM646.815 341V137.364H777.269V168.287H683.704V223.571H768.321V254.494H683.704V341H646.815ZM808.077 341V137.364H884.441C900.085 137.364 913.21 140.081 923.816 145.517C934.488 150.953 942.542 158.576 947.978 168.386C953.48 178.131 956.231 189.499 956.231 202.491C956.231 215.55 953.447 226.885 947.879 236.497C942.377 246.043 934.256 253.434 923.518 258.67C912.779 263.841 899.588 266.426 883.944 266.426H829.555V235.801H878.972C888.12 235.801 895.611 234.542 901.444 232.023C907.277 229.437 911.586 225.692 914.37 220.787C917.22 215.815 918.646 209.717 918.646 202.491C918.646 195.266 917.22 189.101 914.37 183.997C911.52 178.827 907.178 174.916 901.344 172.264C895.511 169.546 887.987 168.188 878.773 168.188H844.967V341H808.077ZM913.276 248.727L963.688 341H922.523L873.006 248.727H913.276ZM1115.75 137.364H1152.64V270.403C1152.64 284.987 1149.2 297.813 1142.3 308.884C1135.47 319.954 1125.86 328.604 1113.47 334.835C1101.07 341 1086.59 344.082 1070.01 344.082C1053.38 344.082 1038.86 341 1026.46 334.835C1014.07 328.604 1004.46 319.954 997.628 308.884C990.801 297.813 987.387 284.987 987.387 270.403V137.364H1024.28V267.321C1024.28 275.806 1026.13 283.363 1029.84 289.991C1033.62 296.62 1038.93 301.824 1045.75 305.602C1052.58 309.314 1060.67 311.17 1070.01 311.17C1079.36 311.17 1087.45 309.314 1094.28 305.602C1101.17 301.824 1106.47 296.62 1110.19 289.991C1113.9 283.363 1115.75 275.806 1115.75 267.321V137.364Z" fill="#0348D9"/>
</svg>
