<svg width="40" height="40" viewBox="0 0 40 40" fill="none" xmlns="http://www.w3.org/2000/svg">
<rect width="40" height="40" rx="20" fill="#0F6EFE"/>
<path d="M17 24.0001C17.8522 24.0001 18.2974 23.0145 17.7832 22.3775L17.7071 22.2929L15.416 20.0007C16.6853 18.7976 18.6983 18.0001 21 18.0001C24.9183 18.0001 28 20.3113 28 23.0001C28 23.5523 28.4477 24.0001 29 24.0001C29.5523 24.0001 30 23.5523 30 23.0001C30 19.0613 25.9183 16.0001 21 16.0001C18.1933 16.0001 15.659 16.997 14.0003 18.585L11.7071 16.2929C11.1045 15.6904 10.0928 16.0724 10.006 16.8864L10 17.0001V23.0001C10 23.5129 10.386 23.9356 10.8834 23.9933L11 24.0001H17Z" fill="white"/>
</svg>
