<svg width="40" height="40" viewBox="0 0 40 40" fill="none" xmlns="http://www.w3.org/2000/svg">
<rect width="40" height="40" rx="20" fill="#0F6EFE"/>
<path fill-rule="evenodd" clip-rule="evenodd" d="M26.6125 12.2095L26.7067 12.2927L29.7067 15.2928C29.7338 15.3198 29.7592 15.3483 29.783 15.3783L29.8657 15.4995L29.9041 15.5728L29.9404 15.6599L29.9722 15.7663L29.9929 15.8833L29.9991 15.9669L29.9979 16.0589L29.9843 16.1747L29.9499 16.312L29.906 16.4231L29.8536 16.5206L29.7869 16.6167L29.7067 16.707L26.7067 19.7071C26.3162 20.0976 25.6831 20.0976 25.2925 19.7071C24.9321 19.3466 24.9043 18.7794 25.2093 18.3871L25.2925 18.2928L26.5846 17L16.9996 16.9999C16.4868 16.9999 16.0641 16.6139 16.0064 16.1165L15.9996 15.9999C15.9996 15.4476 16.4474 14.9999 16.9996 14.9999L26.5846 15L25.2925 13.7069C24.9321 13.3465 24.9043 12.7792 25.2093 12.3869L25.2925 12.2927C25.623 11.9622 26.1271 11.9114 26.511 12.1402L26.6125 12.2095ZM13.2924 27.7071L10.2924 24.707L10.1958 24.5951L10.1244 24.4842L10.0706 24.371L10.0352 24.2658L10.0148 24.1747L10.0012 24.0589L10.0012 23.9408L10.0148 23.8252L10.0494 23.6871L10.0689 23.6332L10.1082 23.546L10.1456 23.4792L10.2006 23.3982L10.253 23.3344L10.2924 23.2928L13.2924 20.2927L13.3866 20.2095C13.7462 19.9299 14.2528 19.9299 14.6124 20.2095L14.7066 20.2927L14.7898 20.3869C15.0694 20.7465 15.0694 21.2531 14.7898 21.6127L14.7066 21.7069L13.4145 23L22.9995 22.9999C23.5123 22.9999 23.935 23.3859 23.9928 23.8832L23.9995 23.9999L23.9928 24.1165C23.9394 24.5756 23.5752 24.9399 23.1161 24.9932L22.9995 24.9999L13.4145 25L14.7066 26.2928L14.7898 26.3871C15.0948 26.7794 15.0671 27.3466 14.7066 27.7071C14.3461 28.0676 13.7789 28.0953 13.3866 27.7903L13.2924 27.7071Z" fill="white"/>
</svg>
