<svg width="40" height="40" viewBox="0 0 40 40" fill="none" xmlns="http://www.w3.org/2000/svg">
<rect width="40" height="40" rx="20" fill="#0F6EFE"/>
<path fill-rule="evenodd" clip-rule="evenodd" d="M19 10H21C22.5977 10 23.9037 11.2489 23.9949 12.8237L24 13V14H27C28.6569 14 30 15.3431 30 17V27C30 28.6569 28.6569 30 27 30H13C11.3431 30 10 28.6569 10 27V17C10 15.3431 11.3431 14 13 14H16V13C16 11.4023 17.2489 10.0963 18.8237 10.0051L19 10H21H19ZM28 24H12V27C12 27.5523 12.4477 28 13 28H27C27.5523 28 28 27.5523 28 27V24ZM27 16H13C12.4477 16 12 16.4477 12 17V22H28V17C28 16.4477 27.5523 16 27 16ZM21 12H19C18.4872 12 18.0645 12.386 18.0067 12.8834L18 13V14H22V13C22 12.4872 21.614 12.0645 21.1166 12.0067L21 12Z" fill="white"/>
</svg>
