<svg width="124" height="6" viewBox="0 0 124 6" fill="none" xmlns="http://www.w3.org/2000/svg">
<path d="M0.5 2.5C0.223858 2.5 0 2.72386 0 3C0 3.27614 0.223858 3.5 0.5 3.5V2.5ZM117.833 3C117.833 4.47276 119.027 5.66667 120.5 5.66667C121.973 5.66667 123.167 4.47276 123.167 3C123.167 1.52724 121.973 0.333333 120.5 0.333333C119.027 0.333333 117.833 1.52724 117.833 3ZM1.5 3.5C1.77614 3.5 2 3.27614 2 3C2 2.72386 1.77614 2.5 1.5 2.5V3.5ZM3.5 2.5C3.22386 2.5 3 2.72386 3 3C3 3.27614 3.22386 3.5 3.5 3.5V2.5ZM5.5 3.5C5.77614 3.5 6 3.27614 6 3C6 2.72386 5.77614 2.5 5.5 2.5V3.5ZM7.5 2.5C7.22386 2.5 7 2.72386 7 3C7 3.27614 7.22386 3.5 7.5 3.5V2.5ZM9.5 3.5C9.77614 3.5 10 3.27614 10 3C10 2.72386 9.77614 2.5 9.5 2.5V3.5ZM11.5 2.5C11.2239 2.5 11 2.72386 11 3C11 3.27614 11.2239 3.5 11.5 3.5V2.5ZM13.5 3.5C13.7761 3.5 14 3.27614 14 3C14 2.72386 13.7761 2.5 13.5 2.5V3.5ZM15.5 2.5C15.2239 2.5 15 2.72386 15 3C15 3.27614 15.2239 3.5 15.5 3.5V2.5ZM17.5 3.5C17.7761 3.5 18 3.27614 18 3C18 2.72386 17.7761 2.5 17.5 2.5V3.5ZM19.5 2.5C19.2239 2.5 19 2.72386 19 3C19 3.27614 19.2239 3.5 19.5 3.5V2.5ZM21.5 3.5C21.7761 3.5 22 3.27614 22 3C22 2.72386 21.7761 2.5 21.5 2.5V3.5ZM23.5 2.5C23.2239 2.5 23 2.72386 23 3C23 3.27614 23.2239 3.5 23.5 3.5V2.5ZM25.5 3.5C25.7761 3.5 26 3.27614 26 3C26 2.72386 25.7761 2.5 25.5 2.5V3.5ZM27.5 2.5C27.2239 2.5 27 2.72386 27 3C27 3.27614 27.2239 3.5 27.5 3.5V2.5ZM29.5 3.5C29.7761 3.5 30 3.27614 30 3C30 2.72386 29.7761 2.5 29.5 2.5V3.5ZM31.5 2.5C31.2239 2.5 31 2.72386 31 3C31 3.27614 31.2239 3.5 31.5 3.5V2.5ZM33.5 3.5C33.7761 3.5 34 3.27614 34 3C34 2.72386 33.7761 2.5 33.5 2.5V3.5ZM35.5 2.5C35.2239 2.5 35 2.72386 35 3C35 3.27614 35.2239 3.5 35.5 3.5V2.5ZM37.5 3.5C37.7761 3.5 38 3.27614 38 3C38 2.72386 37.7761 2.5 37.5 2.5V3.5ZM39.5 2.5C39.2239 2.5 39 2.72386 39 3C39 3.27614 39.2239 3.5 39.5 3.5V2.5ZM41.5 3.5C41.7761 3.5 42 3.27614 42 3C42 2.72386 41.7761 2.5 41.5 2.5V3.5ZM43.5 2.5C43.2239 2.5 43 2.72386 43 3C43 3.27614 43.2239 3.5 43.5 3.5V2.5ZM45.5 3.5C45.7761 3.5 46 3.27614 46 3C46 2.72386 45.7761 2.5 45.5 2.5V3.5ZM47.5 2.5C47.2239 2.5 47 2.72386 47 3C47 3.27614 47.2239 3.5 47.5 3.5V2.5ZM49.5 3.5C49.7761 3.5 50 3.27614 50 3C50 2.72386 49.7761 2.5 49.5 2.5V3.5ZM51.5 2.5C51.2239 2.5 51 2.72386 51 3C51 3.27614 51.2239 3.5 51.5 3.5V2.5ZM53.5 3.5C53.7761 3.5 54 3.27614 54 3C54 2.72386 53.7761 2.5 53.5 2.5V3.5ZM55.5 2.5C55.2239 2.5 55 2.72386 55 3C55 3.27614 55.2239 3.5 55.5 3.5V2.5ZM57.5 3.5C57.7761 3.5 58 3.27614 58 3C58 2.72386 57.7761 2.5 57.5 2.5V3.5ZM59.5 2.5C59.2239 2.5 59 2.72386 59 3C59 3.27614 59.2239 3.5 59.5 3.5V2.5ZM61.5 3.5C61.7761 3.5 62 3.27614 62 3C62 2.72386 61.7761 2.5 61.5 2.5V3.5ZM63.5 2.5C63.2239 2.5 63 2.72386 63 3C63 3.27614 63.2239 3.5 63.5 3.5V2.5ZM65.5 3.5C65.7761 3.5 66 3.27614 66 3C66 2.72386 65.7761 2.5 65.5 2.5V3.5ZM67.5 2.5C67.2239 2.5 67 2.72386 67 3C67 3.27614 67.2239 3.5 67.5 3.5V2.5ZM69.5 3.5C69.7761 3.5 70 3.27614 70 3C70 2.72386 69.7761 2.5 69.5 2.5V3.5ZM71.5 2.5C71.2239 2.5 71 2.72386 71 3C71 3.27614 71.2239 3.5 71.5 3.5V2.5ZM73.5 3.5C73.7761 3.5 74 3.27614 74 3C74 2.72386 73.7761 2.5 73.5 2.5V3.5ZM75.5 2.5C75.2239 2.5 75 2.72386 75 3C75 3.27614 75.2239 3.5 75.5 3.5V2.5ZM77.5 3.5C77.7761 3.5 78 3.27614 78 3C78 2.72386 77.7761 2.5 77.5 2.5V3.5ZM79.5 2.5C79.2239 2.5 79 2.72386 79 3C79 3.27614 79.2239 3.5 79.5 3.5V2.5ZM81.5 3.5C81.7761 3.5 82 3.27614 82 3C82 2.72386 81.7761 2.5 81.5 2.5V3.5ZM83.5 2.5C83.2239 2.5 83 2.72386 83 3C83 3.27614 83.2239 3.5 83.5 3.5V2.5ZM85.5 3.5C85.7761 3.5 86 3.27614 86 3C86 2.72386 85.7761 2.5 85.5 2.5V3.5ZM87.5 2.5C87.2239 2.5 87 2.72386 87 3C87 3.27614 87.2239 3.5 87.5 3.5V2.5ZM89.5 3.5C89.7761 3.5 90 3.27614 90 3C90 2.72386 89.7761 2.5 89.5 2.5V3.5ZM91.5 2.5C91.2239 2.5 91 2.72386 91 3C91 3.27614 91.2239 3.5 91.5 3.5V2.5ZM93.5 3.5C93.7761 3.5 94 3.27614 94 3C94 2.72386 93.7761 2.5 93.5 2.5V3.5ZM95.5 2.5C95.2239 2.5 95 2.72386 95 3C95 3.27614 95.2239 3.5 95.5 3.5V2.5ZM97.5 3.5C97.7761 3.5 98 3.27614 98 3C98 2.72386 97.7761 2.5 97.5 2.5V3.5ZM99.5 2.5C99.2239 2.5 99 2.72386 99 3C99 3.27614 99.2239 3.5 99.5 3.5V2.5ZM101.5 3.5C101.776 3.5 102 3.27614 102 3C102 2.72386 101.776 2.5 101.5 2.5V3.5ZM103.5 2.5C103.224 2.5 103 2.72386 103 3C103 3.27614 103.224 3.5 103.5 3.5V2.5ZM105.5 3.5C105.776 3.5 106 3.27614 106 3C106 2.72386 105.776 2.5 105.5 2.5V3.5ZM107.5 2.5C107.224 2.5 107 2.72386 107 3C107 3.27614 107.224 3.5 107.5 3.5V2.5ZM109.5 3.5C109.776 3.5 110 3.27614 110 3C110 2.72386 109.776 2.5 109.5 2.5V3.5ZM111.5 2.5C111.224 2.5 111 2.72386 111 3C111 3.27614 111.224 3.5 111.5 3.5V2.5ZM113.5 3.5C113.776 3.5 114 3.27614 114 3C114 2.72386 113.776 2.5 113.5 2.5V3.5ZM115.5 2.5C115.224 2.5 115 2.72386 115 3C115 3.27614 115.224 3.5 115.5 3.5V2.5ZM117.5 3.5C117.776 3.5 118 3.27614 118 3C118 2.72386 117.776 2.5 117.5 2.5V3.5ZM119.5 2.5C119.224 2.5 119 2.72386 119 3C119 3.27614 119.224 3.5 119.5 3.5V2.5ZM0.5 3.5H1.5V2.5H0.5V3.5ZM3.5 3.5H5.5V2.5H3.5V3.5ZM7.5 3.5H9.5V2.5H7.5V3.5ZM11.5 3.5H13.5V2.5H11.5V3.5ZM15.5 3.5H17.5V2.5H15.5V3.5ZM19.5 3.5H21.5V2.5H19.5V3.5ZM23.5 3.5H25.5V2.5H23.5V3.5ZM27.5 3.5H29.5V2.5H27.5V3.5ZM31.5 3.5H33.5V2.5H31.5V3.5ZM35.5 3.5H37.5V2.5H35.5V3.5ZM39.5 3.5H41.5V2.5H39.5V3.5ZM43.5 3.5H45.5V2.5H43.5V3.5ZM47.5 3.5H49.5V2.5H47.5V3.5ZM51.5 3.5H53.5V2.5H51.5V3.5ZM55.5 3.5H57.5V2.5H55.5V3.5ZM59.5 3.5H61.5V2.5H59.5V3.5ZM63.5 3.5H65.5V2.5H63.5V3.5ZM67.5 3.5H69.5V2.5H67.5V3.5ZM71.5 3.5H73.5V2.5H71.5V3.5ZM75.5 3.5H77.5V2.5H75.5V3.5ZM79.5 3.5H81.5V2.5H79.5V3.5ZM83.5 3.5H85.5V2.5H83.5V3.5ZM87.5 3.5H89.5V2.5H87.5V3.5ZM91.5 3.5H93.5V2.5H91.5V3.5ZM95.5 3.5H97.5V2.5H95.5V3.5ZM99.5 3.5H101.5V2.5H99.5V3.5ZM103.5 3.5H105.5V2.5H103.5V3.5ZM107.5 3.5H109.5V2.5H107.5V3.5ZM111.5 3.5H113.5V2.5H111.5V3.5ZM115.5 3.5H117.5V2.5H115.5V3.5ZM119.5 3.5H120.5V2.5H119.5V3.5Z" fill="#A1C0F0"/>
</svg>
