<svg width="124" height="6" viewBox="0 0 124 6" fill="none" xmlns="http://www.w3.org/2000/svg">
<path d="M0.833333 3C0.833333 4.47276 2.02724 5.66667 3.5 5.66667C4.97276 5.66667 6.16667 4.47276 6.16667 3C6.16667 1.52724 4.97276 0.333333 3.5 0.333333C2.02724 0.333333 0.833333 1.52724 0.833333 3ZM123.5 3.5C123.776 3.5 124 3.27614 124 3C124 2.72386 123.776 2.5 123.5 2.5V3.5ZM4.5 3.5C4.77614 3.5 5 3.27614 5 3C5 2.72386 4.77614 2.5 4.5 2.5V3.5ZM6.5 2.5C6.22386 2.5 6 2.72386 6 3C6 3.27614 6.22386 3.5 6.5 3.5V2.5ZM8.5 3.5C8.77614 3.5 9 3.27614 9 3C9 2.72386 8.77614 2.5 8.5 2.5V3.5ZM10.5 2.5C10.2239 2.5 10 2.72386 10 3C10 3.27614 10.2239 3.5 10.5 3.5V2.5ZM12.5 3.5C12.7761 3.5 13 3.27614 13 3C13 2.72386 12.7761 2.5 12.5 2.5V3.5ZM14.5 2.5C14.2239 2.5 14 2.72386 14 3C14 3.27614 14.2239 3.5 14.5 3.5V2.5ZM16.5 3.5C16.7761 3.5 17 3.27614 17 3C17 2.72386 16.7761 2.5 16.5 2.5V3.5ZM18.5 2.5C18.2239 2.5 18 2.72386 18 3C18 3.27614 18.2239 3.5 18.5 3.5V2.5ZM20.5 3.5C20.7761 3.5 21 3.27614 21 3C21 2.72386 20.7761 2.5 20.5 2.5V3.5ZM22.5 2.5C22.2239 2.5 22 2.72386 22 3C22 3.27614 22.2239 3.5 22.5 3.5V2.5ZM24.5 3.5C24.7761 3.5 25 3.27614 25 3C25 2.72386 24.7761 2.5 24.5 2.5V3.5ZM26.5 2.5C26.2239 2.5 26 2.72386 26 3C26 3.27614 26.2239 3.5 26.5 3.5V2.5ZM28.5 3.5C28.7761 3.5 29 3.27614 29 3C29 2.72386 28.7761 2.5 28.5 2.5V3.5ZM30.5 2.5C30.2239 2.5 30 2.72386 30 3C30 3.27614 30.2239 3.5 30.5 3.5V2.5ZM32.5 3.5C32.7761 3.5 33 3.27614 33 3C33 2.72386 32.7761 2.5 32.5 2.5V3.5ZM34.5 2.5C34.2239 2.5 34 2.72386 34 3C34 3.27614 34.2239 3.5 34.5 3.5V2.5ZM36.5 3.5C36.7761 3.5 37 3.27614 37 3C37 2.72386 36.7761 2.5 36.5 2.5V3.5ZM38.5 2.5C38.2239 2.5 38 2.72386 38 3C38 3.27614 38.2239 3.5 38.5 3.5V2.5ZM40.5 3.5C40.7761 3.5 41 3.27614 41 3C41 2.72386 40.7761 2.5 40.5 2.5V3.5ZM42.5 2.5C42.2239 2.5 42 2.72386 42 3C42 3.27614 42.2239 3.5 42.5 3.5V2.5ZM44.5 3.5C44.7761 3.5 45 3.27614 45 3C45 2.72386 44.7761 2.5 44.5 2.5V3.5ZM46.5 2.5C46.2239 2.5 46 2.72386 46 3C46 3.27614 46.2239 3.5 46.5 3.5V2.5ZM48.5 3.5C48.7761 3.5 49 3.27614 49 3C49 2.72386 48.7761 2.5 48.5 2.5V3.5ZM50.5 2.5C50.2239 2.5 50 2.72386 50 3C50 3.27614 50.2239 3.5 50.5 3.5V2.5ZM52.5 3.5C52.7761 3.5 53 3.27614 53 3C53 2.72386 52.7761 2.5 52.5 2.5V3.5ZM54.5 2.5C54.2239 2.5 54 2.72386 54 3C54 3.27614 54.2239 3.5 54.5 3.5V2.5ZM56.5 3.5C56.7761 3.5 57 3.27614 57 3C57 2.72386 56.7761 2.5 56.5 2.5V3.5ZM58.5 2.5C58.2239 2.5 58 2.72386 58 3C58 3.27614 58.2239 3.5 58.5 3.5V2.5ZM60.5 3.5C60.7761 3.5 61 3.27614 61 3C61 2.72386 60.7761 2.5 60.5 2.5V3.5ZM62.5 2.5C62.2239 2.5 62 2.72386 62 3C62 3.27614 62.2239 3.5 62.5 3.5V2.5ZM64.5 3.5C64.7761 3.5 65 3.27614 65 3C65 2.72386 64.7761 2.5 64.5 2.5V3.5ZM66.5 2.5C66.2239 2.5 66 2.72386 66 3C66 3.27614 66.2239 3.5 66.5 3.5V2.5ZM68.5 3.5C68.7761 3.5 69 3.27614 69 3C69 2.72386 68.7761 2.5 68.5 2.5V3.5ZM70.5 2.5C70.2239 2.5 70 2.72386 70 3C70 3.27614 70.2239 3.5 70.5 3.5V2.5ZM72.5 3.5C72.7761 3.5 73 3.27614 73 3C73 2.72386 72.7761 2.5 72.5 2.5V3.5ZM74.5 2.5C74.2239 2.5 74 2.72386 74 3C74 3.27614 74.2239 3.5 74.5 3.5V2.5ZM76.5 3.5C76.7761 3.5 77 3.27614 77 3C77 2.72386 76.7761 2.5 76.5 2.5V3.5ZM78.5 2.5C78.2239 2.5 78 2.72386 78 3C78 3.27614 78.2239 3.5 78.5 3.5V2.5ZM80.5 3.5C80.7761 3.5 81 3.27614 81 3C81 2.72386 80.7761 2.5 80.5 2.5V3.5ZM82.5 2.5C82.2239 2.5 82 2.72386 82 3C82 3.27614 82.2239 3.5 82.5 3.5V2.5ZM84.5 3.5C84.7761 3.5 85 3.27614 85 3C85 2.72386 84.7761 2.5 84.5 2.5V3.5ZM86.5 2.5C86.2239 2.5 86 2.72386 86 3C86 3.27614 86.2239 3.5 86.5 3.5V2.5ZM88.5 3.5C88.7761 3.5 89 3.27614 89 3C89 2.72386 88.7761 2.5 88.5 2.5V3.5ZM90.5 2.5C90.2239 2.5 90 2.72386 90 3C90 3.27614 90.2239 3.5 90.5 3.5V2.5ZM92.5 3.5C92.7761 3.5 93 3.27614 93 3C93 2.72386 92.7761 2.5 92.5 2.5V3.5ZM94.5 2.5C94.2239 2.5 94 2.72386 94 3C94 3.27614 94.2239 3.5 94.5 3.5V2.5ZM96.5 3.5C96.7761 3.5 97 3.27614 97 3C97 2.72386 96.7761 2.5 96.5 2.5V3.5ZM98.5 2.5C98.2239 2.5 98 2.72386 98 3C98 3.27614 98.2239 3.5 98.5 3.5V2.5ZM100.5 3.5C100.776 3.5 101 3.27614 101 3C101 2.72386 100.776 2.5 100.5 2.5V3.5ZM102.5 2.5C102.224 2.5 102 2.72386 102 3C102 3.27614 102.224 3.5 102.5 3.5V2.5ZM104.5 3.5C104.776 3.5 105 3.27614 105 3C105 2.72386 104.776 2.5 104.5 2.5V3.5ZM106.5 2.5C106.224 2.5 106 2.72386 106 3C106 3.27614 106.224 3.5 106.5 3.5V2.5ZM108.5 3.5C108.776 3.5 109 3.27614 109 3C109 2.72386 108.776 2.5 108.5 2.5V3.5ZM110.5 2.5C110.224 2.5 110 2.72386 110 3C110 3.27614 110.224 3.5 110.5 3.5V2.5ZM112.5 3.5C112.776 3.5 113 3.27614 113 3C113 2.72386 112.776 2.5 112.5 2.5V3.5ZM114.5 2.5C114.224 2.5 114 2.72386 114 3C114 3.27614 114.224 3.5 114.5 3.5V2.5ZM116.5 3.5C116.776 3.5 117 3.27614 117 3C117 2.72386 116.776 2.5 116.5 2.5V3.5ZM118.5 2.5C118.224 2.5 118 2.72386 118 3C118 3.27614 118.224 3.5 118.5 3.5V2.5ZM120.5 3.5C120.776 3.5 121 3.27614 121 3C121 2.72386 120.776 2.5 120.5 2.5V3.5ZM122.5 2.5C122.224 2.5 122 2.72386 122 3C122 3.27614 122.224 3.5 122.5 3.5V2.5ZM3.5 3.5H4.5V2.5H3.5V3.5ZM6.5 3.5H8.5V2.5H6.5V3.5ZM10.5 3.5H12.5V2.5H10.5V3.5ZM14.5 3.5H16.5V2.5H14.5V3.5ZM18.5 3.5H20.5V2.5H18.5V3.5ZM22.5 3.5H24.5V2.5H22.5V3.5ZM26.5 3.5H28.5V2.5H26.5V3.5ZM30.5 3.5H32.5V2.5H30.5V3.5ZM34.5 3.5H36.5V2.5H34.5V3.5ZM38.5 3.5H40.5V2.5H38.5V3.5ZM42.5 3.5H44.5V2.5H42.5V3.5ZM46.5 3.5H48.5V2.5H46.5V3.5ZM50.5 3.5H52.5V2.5H50.5V3.5ZM54.5 3.5H56.5V2.5H54.5V3.5ZM58.5 3.5H60.5V2.5H58.5V3.5ZM62.5 3.5H64.5V2.5H62.5V3.5ZM66.5 3.5H68.5V2.5H66.5V3.5ZM70.5 3.5H72.5V2.5H70.5V3.5ZM74.5 3.5H76.5V2.5H74.5V3.5ZM78.5 3.5H80.5V2.5H78.5V3.5ZM82.5 3.5H84.5V2.5H82.5V3.5ZM86.5 3.5H88.5V2.5H86.5V3.5ZM90.5 3.5H92.5V2.5H90.5V3.5ZM94.5 3.5H96.5V2.5H94.5V3.5ZM98.5 3.5H100.5V2.5H98.5V3.5ZM102.5 3.5H104.5V2.5H102.5V3.5ZM106.5 3.5H108.5V2.5H106.5V3.5ZM110.5 3.5H112.5V2.5H110.5V3.5ZM114.5 3.5H116.5V2.5H114.5V3.5ZM118.5 3.5H120.5V2.5H118.5V3.5ZM122.5 3.5H123.5V2.5H122.5V3.5Z" fill="#A1C0F0"/>
</svg>
