<svg width="45" height="46" viewBox="0 0 45 46" fill="none" xmlns="http://www.w3.org/2000/svg">
<rect y="0.5" width="45" height="45" rx="22.5" fill="#E8E8E8"/>
<path d="M23.1596 23.12C23.1296 23.12 23.1096 23.12 23.0796 23.12C23.0296 23.11 22.9596 23.11 22.8996 23.12C19.9996 23.03 17.8096 20.75 17.8096 17.94C17.8096 15.08 20.1396 12.75 22.9996 12.75C25.8596 12.75 28.1896 15.08 28.1896 17.94C28.1796 20.75 25.9796 23.03 23.1896 23.12C23.1796 23.12 23.1696 23.12 23.1596 23.12ZM22.9996 14.25C20.9696 14.25 19.3096 15.91 19.3096 17.94C19.3096 19.94 20.8696 21.55 22.8596 21.62C22.9096 21.61 23.0496 21.61 23.1796 21.62C25.1396 21.53 26.6796 19.92 26.6896 17.94C26.6896 15.91 25.0296 14.25 22.9996 14.25Z" fill="#9F9F9F"/>
<path d="M22.9996 14.25C20.9696 14.25 19.3096 15.91 19.3096 17.94C19.3096 19.94 20.8696 21.55 22.8596 21.62C22.9096 21.61 23.0496 21.61 23.1796 21.62C25.1396 21.53 26.6796 19.92 26.6896 17.94C26.6896 15.91 25.0296 14.25 22.9996 14.25Z" fill="#9F9F9F"/>
<path d="M23.1696 35.05C21.2096 35.05 19.2396 34.55 17.7496 33.55C16.3596 32.63 15.5996 31.37 15.5996 30C15.5996 28.63 16.3596 27.36 17.7496 26.43C20.7496 24.44 25.6096 24.44 28.5896 26.43C29.9696 27.35 30.7396 28.61 30.7396 29.98C30.7396 31.35 29.9796 32.62 28.5896 33.55C27.0896 34.55 25.1296 35.05 23.1696 35.05ZM18.5796 27.69C17.6196 28.33 17.0996 29.15 17.0996 30.01C17.0996 30.86 17.6296 31.68 18.5796 32.31C21.0696 33.98 25.2696 33.98 27.7596 32.31C28.7196 31.67 29.2396 30.85 29.2396 29.99C29.2396 29.14 28.7096 28.32 27.7596 27.69C25.2696 26.03 21.0696 26.03 18.5796 27.69Z" fill="#9F9F9F"/>
<path d="M18.5796 27.69C17.6196 28.33 17.0996 29.15 17.0996 30.01C17.0996 30.86 17.6296 31.68 18.5796 32.31C21.0696 33.98 25.2696 33.98 27.7596 32.31C28.7196 31.67 29.2396 30.85 29.2396 29.99C29.2396 29.14 28.7096 28.32 27.7596 27.69C25.2696 26.03 21.0696 26.03 18.5796 27.69Z" fill="#9F9F9F"/>
</svg>
