<svg width="27" height="30" viewBox="0 0 27 30" fill="none" xmlns="http://www.w3.org/2000/svg">
<path fill-rule="evenodd" clip-rule="evenodd" d="M7.32133 3.82149L10.6547 0.488155C11.3055 -0.162718 12.3608 -0.162718 13.0117 0.488155C13.6125 1.08896 13.6587 2.03435 13.1503 2.68817L13.0117 2.84518L12.4818 3.3717C12.8192 3.34618 13.1587 3.33333 13.4998 3.33333C20.8636 3.33333 26.8332 9.30287 26.8332 16.6667C26.8332 24.0305 20.8636 30 13.4998 30C6.13604 30 0.166504 24.0305 0.166504 16.6667C0.166504 15.7462 0.912696 15 1.83317 15C2.75365 15 3.49984 15.7462 3.49984 16.6667C3.49984 22.1895 7.97699 26.6667 13.4998 26.6667C19.0227 26.6667 23.4998 22.1895 23.4998 16.6667C23.4998 11.1438 19.0227 6.66667 13.4998 6.66667C13.1881 6.66667 12.8784 6.68089 12.5714 6.70908L13.0117 7.15482C13.6626 7.8057 13.6626 8.86097 13.0117 9.51184C12.4109 10.1127 11.4655 10.1589 10.8117 9.65049L10.6547 9.51184L7.32133 6.17851C6.72052 5.5777 6.6743 4.63232 7.18268 3.9785L7.32133 3.82149L10.6547 0.488155L7.32133 3.82149Z" fill="#9F9F9F"/>
</svg>
